<?xml version="1.0" encoding="utf-8"?>
<!-- Generator: Adobe Illustrator 22.1.0, SVG Export Plug-In . SVG Version: 6.00 Build 0)  -->
<svg version="1.1" id="Layer_1" xmlns="http://www.w3.org/2000/svg" xmlns:xlink="http://www.w3.org/1999/xlink" x="0px" y="0px"
	 viewBox="0 0 296.9 67.9" style="enable-background:new 0 0 296.9 67.9;" xml:space="preserve">
<style type="text/css">
	.st0{fill:#FFFFFF;}
</style>
<path class="st0" d="M17.3,59c-1.9,1.6-4.2,2.4-6.9,2.4c-4.6,0-8.1-2.1-10.4-6.3l2.5-1.5c0.8,1.5,1.8,2.6,3,3.5
	c1.2,0.9,2.8,1.4,4.9,1.4c4.5,0,6.8-1.9,6.8-5.8c0-1.7-0.8-3.1-2.4-4.4c-0.5-0.3-1.2-0.6-2.1-1c-0.9-0.4-2-0.8-3.3-1.3
	c-2.4-0.9-4.1-1.7-5.2-2.6c-1.5-1.2-2.3-3-2.3-5.4c0-2,0.8-3.7,2.3-5.2c1.5-1.5,3.4-2.2,5.8-2.2c3.3,0,6.1,1.2,8.4,3.5L16.3,36
	c-1.6-1.6-3.7-2.4-6.3-2.4c-3.5,0-5.2,1.5-5.2,4.5c0,1.3,0.5,2.4,1.6,3.3c0.9,0.7,2.2,1.3,4.1,1.9c1.6,0.6,3,1.1,4,1.6
	c1.1,0.5,1.8,0.9,2.4,1.3c2.1,1.6,3.1,3.7,3.1,6.4C20.1,55.3,19.2,57.4,17.3,59z"/>
<path class="st0" d="M28.1,45.4c0,4,1.1,7.2,3.2,9.6c2.3,2.4,5.4,3.6,9.3,3.6c2,0,3.8-0.3,5.5-1c2.1-0.9,3.9-2.6,5.5-5.3l2.7,1.2
	c-1.9,3.6-4.8,6-8.6,7.2c-1.5,0.5-3.2,0.7-5,0.7c-4.5,0-8.1-1.5-11-4.4c-2.9-2.9-4.4-6.6-4.4-11c0-4.5,1.4-8.1,4.3-11
	c2.9-2.9,6.6-4.4,11.1-4.4c4.4,0,8.1,1.4,10.9,4.1c2.9,2.7,4.4,6.3,4.4,10.7H28.1z M48.4,35.9c-2.3-1.6-4.8-2.4-7.8-2.4
	c-6.1,0-10.2,3-12.1,9.1h24.1C52.1,39.8,50.7,37.6,48.4,35.9z"/>
<path class="st0" d="M95.6,60.8V40.3c0-1.8-0.6-3.4-1.8-4.8c-1.2-1.3-2.9-2-5.2-2c-4.7,0-7,2.3-7,6.8v20.5h-3V40.3
	c0-2-0.7-3.6-2-4.8c-1.4-1.3-3-1.9-5-1.9c-2,0-3.6,0.6-5,1.9c-1.3,1.2-2,2.8-2,4.9v20.5h-3V31.1h3v3c1.4-2.3,3.8-3.4,7-3.4
	c3.8,0,6.7,1.6,8.5,4.7c1.7-3.1,4.5-4.7,8.4-4.7c3,0,5.4,0.8,7.2,2.5c1.8,1.7,2.7,4.1,2.7,7.1v20.5H95.6z"/>
<path class="st0" d="M132.1,60.8v-5.1c-3.1,3.7-7.1,5.6-11.9,5.6c-4.3,0-7.9-1.5-10.9-4.4c-3-3-4.5-6.6-4.5-10.9
	c0-4.3,1.5-7.9,4.4-10.9c3-3,6.6-4.5,10.9-4.5c4.8,0,8.7,1.9,11.9,5.6v-5.2h3v29.7H132.1z M129,37.2c-2.4-2.4-5.4-3.7-8.8-3.7
	c-3.5,0-6.4,1.2-8.8,3.6c-2.4,2.4-3.7,5.4-3.7,8.9c0,3.4,1.2,6.3,3.7,8.8c2.4,2.4,5.4,3.7,8.8,3.7c3.5,0,6.4-1.2,8.8-3.6
	c2.4-2.4,3.7-5.4,3.7-8.9C132.6,42.6,131.4,39.7,129,37.2z"/>
<path class="st0" d="M169.8,56.9c-3,3-6.6,4.5-10.9,4.5c-4.9,0-9-2-12.2-6v12.6l0,0h-3V31.1h3v5.6c3.1-4,7.2-6,12.2-6
	c4.3,0,7.9,1.5,10.9,4.4c3,3,4.5,6.6,4.5,10.9C174.2,50.3,172.7,53.9,169.8,56.9z M167.6,37.2c-2.4-2.4-5.4-3.7-8.8-3.7
	c-3.5,0-6.4,1.2-8.8,3.6c-2.4,2.4-3.7,5.4-3.7,8.9c0,3.4,1.2,6.3,3.7,8.8c2.4,2.4,5.4,3.7,8.8,3.7c3.5,0,6.4-1.2,8.8-3.6
	c2.4-2.4,3.7-5.4,3.7-8.9C171.3,42.6,170.1,39.7,167.6,37.2z"/>
<path class="st0" d="M200.9,60.9V43c0-6.3-2.9-9.4-8.8-9.4c-2.4,0-4.5,0.7-6.2,2.2c-1.8,1.4-2.7,3.4-2.7,5.8v19.4h-3V7.6h3v27.5
	c1.8-2.9,4.7-4.4,8.9-4.4c7.8,0,11.7,4,11.7,12v18.2H200.9z"/>
<path class="st0" d="M236.6,56.9c-3,3-6.6,4.5-10.9,4.5c-4.3,0-7.9-1.5-10.9-4.4c-3-3-4.5-6.6-4.5-10.9c0-4.3,1.5-7.9,4.5-10.9
	c2.9-3,6.6-4.5,10.9-4.5c4.3,0,7.9,1.5,10.9,4.5c3,3,4.5,6.6,4.5,10.9C241,50.3,239.5,53.9,236.6,56.9z M234.5,37.1
	c-2.4-2.4-5.4-3.7-8.9-3.7c-3.4,0-6.3,1.2-8.7,3.7c-2.5,2.5-3.7,5.4-3.7,8.8c0,3.4,1.2,6.3,3.7,8.8c2.4,2.4,5.4,3.7,8.8,3.7
	c3.5,0,6.4-1.2,8.8-3.6c2.4-2.4,3.7-5.4,3.7-8.9C238.1,42.5,236.9,39.5,234.5,37.1z"/>
<path class="st0" d="M262.5,35.5c-0.8-0.6-1.6-1-2.4-1.4c-0.9-0.3-1.8-0.5-2.7-0.5c-0.8,0-1.6,0.3-2.3,0.8c-0.7,0.5-1.3,1.1-1.9,1.9
	c-0.5,0.7-0.9,1.6-1.3,2.5c-0.3,0.9-0.5,1.8-0.5,2.5v19.6h-3V31.1h3v4c0.6-1.1,1.4-2.1,2.4-3c1-0.9,2.1-1.4,3.3-1.4
	c1.5,0,2.7,0.2,3.7,0.5c1,0.3,2,0.9,3.2,1.8L262.5,35.5z"/>
<path class="st0" d="M269.1,45.4c0,4,1.1,7.2,3.2,9.6c2.3,2.4,5.4,3.6,9.3,3.6c2,0,3.8-0.3,5.5-1c2.1-0.9,3.9-2.6,5.5-5.3l2.7,1.2
	c-1.9,3.6-4.8,6-8.6,7.2c-1.5,0.5-3.2,0.7-5,0.7c-4.5,0-8.1-1.5-11-4.4c-2.9-2.9-4.4-6.6-4.4-11c0-4.5,1.4-8.1,4.3-11
	c2.9-2.9,6.6-4.4,11.1-4.4c4.4,0,8.1,1.4,10.9,4.1c2.9,2.7,4.4,6.3,4.4,10.7H269.1z M289.4,35.9c-2.3-1.6-4.8-2.4-7.8-2.4
	c-6.1,0-10.2,3-12.1,9.1h24.1C293.1,39.8,291.7,37.6,289.4,35.9z"/>
<polygon class="st0" points="199.1,0 194.8,7.6 186.1,7.6 190.4,0 "/>
<polygon class="st0" points="177.5,7.6 173.1,15.1 161.6,15.1 165.9,7.6 "/>
</svg>
